<svg id="Layer_1" data-name="Layer 1" xmlns="http://www.w3.org/2000/svg" viewBox="0 0 495.55 495.79"><path d="M582.33,396.8l-8.91,1.5a11.37,11.37,0,0,0-2.06-3.65,10.59,10.59,0,0,0-3-2.47,10.85,10.85,0,0,0-3.76-1.21,14,14,0,0,0-4.28.09,12.9,12.9,0,0,0-6.72,3.18,13.44,13.44,0,0,0-3.83,6.62,26.37,26.37,0,0,0,3.17,18.74,13.19,13.19,0,0,0,5.78,4.95,13,13,0,0,0,7.34.76,14.17,14.17,0,0,0,4-1.28,11.27,11.27,0,0,0,3.16-2.3,10.44,10.44,0,0,0,2.12-3.25,10.89,10.89,0,0,0,.83-4.06l8.91-1.45a19.51,19.51,0,0,1-4.47,13,20,20,0,0,1-5.63,4.67,23.63,23.63,0,0,1-7.71,2.63,22.48,22.48,0,0,1-12-1,21.1,21.1,0,0,1-9.4-7.26,33,33,0,0,1-4.52-27,21.21,21.21,0,0,1,6.53-9.93,22.4,22.4,0,0,1,10.93-4.9,24.46,24.46,0,0,1,7.76-.13,19.82,19.82,0,0,1,6.8,2.29,18.38,18.38,0,0,1,5.42,4.62A20.75,20.75,0,0,1,582.33,396.8Z" transform="translate(-351.69 -379.97)"/><path d="M593.54,429.34,596.37,380,614.88,381a21.05,21.05,0,0,1,9.45,2.52,13.72,13.72,0,0,1,5.54,5.87,16.74,16.74,0,0,1,1.51,8.4,16.24,16.24,0,0,1-2.48,8.12,13.39,13.39,0,0,1-6.23,5,21.92,21.92,0,0,1-9.7,1.35l-13.19-.76.43-7.43,12,.69a13.82,13.82,0,0,0,5.5-.61,6.48,6.48,0,0,0,3.3-2.55,8.83,8.83,0,0,0,1.28-4.36,9.16,9.16,0,0,0-.78-4.56,6.78,6.78,0,0,0-3-3,13.29,13.29,0,0,0-5.42-1.29l-8.2-.47-2.4,41.9Zm26.78-20.91,10.94,23.07-10-.57-10.72-23.06Z" transform="translate(-351.69 -379.97)"/><path d="M635.27,432.63l12.79-47.77,31.07,8.31-1.94,7.26-22.42-6-3.47,13L672.11,413l-1.94,7.25-20.81-5.57-3.49,13,22.6,6.05L666.53,441Z" transform="translate(-351.69 -379.97)"/><path d="M678.38,446l-8.48-4.4,38.24-35.87,9.82,5.1-7.32,51.92-8.49-4.4,6.4-41-.35-.18Zm9.22-17.06,23.14,12-3.31,6.39-23.15-12Z" transform="translate(-351.69 -379.97)"/><path d="M733.47,428.16l4.69-5.87L769,446.94l-4.69,5.87-11.93-9.55L726.15,476l-6.94-5.55,26.2-32.75Z" transform="translate(-351.69 -379.97)"/><path d="M784,463.43,747.65,497l-6.08-6.59,36.34-33.54Z" transform="translate(-351.69 -379.97)"/><path d="M798.37,480.65,773,512.85l.28.42,39.56-10.74,5.43,8.22-50.87,12.72-6.1-9.23L793,472.45Z" transform="translate(-351.69 -379.97)"/><path d="M826.74,530.78,781.62,551,778,542.84l45.13-20.24Z" transform="translate(-351.69 -379.97)"/><path d="M825.1,544.92l7.24-2,10.49,38-7.24,2-4.06-14.74-40.44,11.15-2.36-8.57,40.44-11.15Z" transform="translate(-351.69 -379.97)"/><path d="M845.11,593.45l.48,10.11-21.28,13.12,0,.48,22.43,11.05.48,10.11-31.83-16.51-18.42.88-.43-8.93,18.43-.87Z" transform="translate(-351.69 -379.97)"/><path d="M817.36,688.44l-7-1.58,4.89-21.72,7,1.58Z" transform="translate(-351.69 -379.97)"/><path d="M774.65,719.21l8-14.73,43.48,23.57-8.14,15a25.65,25.65,0,0,1-8.64,9.72A19.91,19.91,0,0,1,798,755.92a32.2,32.2,0,0,1-23.3-12.64,19.91,19.91,0,0,1-3.57-11.3A26.29,26.29,0,0,1,774.65,719.21Zm10.53-3.16-3.51,6.47a17.71,17.71,0,0,0-2.44,8.49,12,12,0,0,0,2.51,7.27,22.77,22.77,0,0,0,7.49,6,22.36,22.36,0,0,0,9.12,3,11.87,11.87,0,0,0,7.39-1.83,17.19,17.19,0,0,0,5.65-6.5l3.64-6.71Z" transform="translate(-351.69 -379.97)"/><path d="M759.29,745l37.42,32.32-21,24.34L770,796.75l15.17-17.56L775,770.42l-14.07,16.3-5.69-4.91,14.08-16.3-10.22-8.83-15.29,17.71-5.68-4.91Z" transform="translate(-351.69 -379.97)"/><path d="M733.88,818.93a6.61,6.61,0,0,0,5.25,2.17,11,11,0,0,0,6.22-2.55,12.28,12.28,0,0,0,3.29-3.6,7,7,0,0,0,1-3.69,5.57,5.57,0,0,0-1.15-3.29,5,5,0,0,0-2.2-1.69,6.09,6.09,0,0,0-2.71-.33,13,13,0,0,0-3,.62,29.56,29.56,0,0,0-2.93,1.13l-4.38,1.91A32.85,32.85,0,0,1,728,811.5a19.33,19.33,0,0,1-5.4.62,12.46,12.46,0,0,1-5.08-1.24,12.25,12.25,0,0,1-4.37-3.7,13.3,13.3,0,0,1-2.9-7.42,14.48,14.48,0,0,1,1.95-8,24.9,24.9,0,0,1,6.9-7.64,25.66,25.66,0,0,1,9-4.69,14.89,14.89,0,0,1,8.43.1,15.43,15.43,0,0,1,7.13,5.06l-7,5.37a7.43,7.43,0,0,0-3.88-2.43,8.4,8.4,0,0,0-4.46.2,14.26,14.26,0,0,0-4.53,2.41,13.81,13.81,0,0,0-3.53,3.83,8.14,8.14,0,0,0-1.24,4.06,5.89,5.89,0,0,0,1.24,3.72,4.81,4.81,0,0,0,2.85,1.85,8.63,8.63,0,0,0,3.76-.21,32.27,32.27,0,0,0,4.62-1.62l5.34-2.28a22.54,22.54,0,0,1,10.55-2.1,10.91,10.91,0,0,1,8,4.59,12.75,12.75,0,0,1,2.78,7.52,15.6,15.6,0,0,1-2,8,22.6,22.6,0,0,1-6.25,7.11,22,22,0,0,1-8.44,4.19,15.18,15.18,0,0,1-8-.2,12.9,12.9,0,0,1-6.37-4.44Z" transform="translate(-351.69 -379.97)"/><path d="M715,846.3,691,803l7.84-4.34,24,43.26Z" transform="translate(-351.69 -379.97)"/><path d="M664.34,850.22a13.2,13.2,0,0,0,2.72,2.76,11.25,11.25,0,0,0,3.26,1.69,10.55,10.55,0,0,0,3.71.47,14.23,14.23,0,0,0,4.06-.82,12.77,12.77,0,0,0,6-4.25,13.34,13.34,0,0,0,2.67-7.16,22.69,22.69,0,0,0-1.45-9.49,23,23,0,0,0-4.81-8.37,13.33,13.33,0,0,0-6.58-3.94,13.13,13.13,0,0,0-7.55.51,13.92,13.92,0,0,0-5.69,3.53,10.28,10.28,0,0,0-2.65,5.3,12.67,12.67,0,0,0,.66,6.41l-2,.38,12.66-4.45,2.32,6.6L652.76,846l-2-5.6a21.52,21.52,0,0,1-1.09-11.26,18.45,18.45,0,0,1,4.65-9.2,24.9,24.9,0,0,1,21.76-7,21,21,0,0,1,10.49,5.6,29.57,29.57,0,0,1,7.2,11.79A31.2,31.2,0,0,1,695.74,841a23.1,23.1,0,0,1-1.84,9.13,20.46,20.46,0,0,1-5.13,7.13,23.11,23.11,0,0,1-7.9,4.61,23.93,23.93,0,0,1-7.62,1.4,20.44,20.44,0,0,1-7.08-1.1,18.89,18.89,0,0,1-6-3.41,18.29,18.29,0,0,1-4.42-5.52Z" transform="translate(-351.69 -379.97)"/><path d="M602.47,875.76l-4.65-49.23,7.94-.75,26.36,31.35.41,0-3.17-33.54,8.92-.84,4.65,49.23-8,.76-26.34-31.38-.44,0,3.17,33.57Z" transform="translate(-351.69 -379.97)"/><path d="M565.51,851.6l.72-7.16,22.15,2.21-.71,7.16Z" transform="translate(-351.69 -379.97)"/><path d="M532.42,858.84l-2.68,7-36.87-14,2.67-7,14.29,5.44L524.75,811l8.31,3.16-14.93,39.2Z" transform="translate(-351.69 -379.97)"/><path d="M506,802.86,479.26,844.5l-27.08-17.36,4.05-6.33,19.54,12.53L483,822l-18.14-11.63,4.06-6.32,18.13,11.62,7.28-11.36-19.69-12.63,4-6.32Z" transform="translate(-351.69 -379.97)"/><path d="M420.3,774.71l6.37,6.41a11.33,11.33,0,0,0-1.8,3.79,10.72,10.72,0,0,0-.25,3.9,10.93,10.93,0,0,0,1.18,3.78,13.88,13.88,0,0,0,2.55,3.44,12.89,12.89,0,0,0,6.47,3.65,13.43,13.43,0,0,0,7.62-.7,26.43,26.43,0,0,0,13.47-13.41,13.12,13.12,0,0,0,.7-7.57,13,13,0,0,0-3.62-6.44,14.14,14.14,0,0,0-3.35-2.53,11.31,11.31,0,0,0-3.71-1.25,10.59,10.59,0,0,0-3.88.14,11,11,0,0,0-3.79,1.67l-6.33-6.44a19.63,19.63,0,0,1,6.24-3.11,19.31,19.31,0,0,1,6.95-.73,19.67,19.67,0,0,1,7.06,1.9,23.25,23.25,0,0,1,6.6,4.77,22.43,22.43,0,0,1,6.07,10.38,21.07,21.07,0,0,1-.5,11.87,33.13,33.13,0,0,1-19.41,19.26,21.25,21.25,0,0,1-11.88.4,22.37,22.37,0,0,1-10.31-6.09,24.6,24.6,0,0,1-4.59-6.26,19.91,19.91,0,0,1-2.06-6.88,18.66,18.66,0,0,1,.65-7.1A20.71,20.71,0,0,1,420.3,774.71Z" transform="translate(-351.69 -379.97)"/><path d="M440.23,747.08l-42.37,25.51-4.62-7.68,17.94-10.8-11.82-19.63-17.94,10.8-4.63-7.7,42.37-25.5,4.63,7.69-18,10.84,11.81,19.63,18-10.83Z" transform="translate(-351.69 -379.97)"/><path d="M357,681.41l47.24-14.61,2.36,7.62-25.3,32.21.12.39,32.18-9.95,2.65,8.56L369,720.24l-2.37-7.66L392,680.38l-.13-.41-32.2,9.95Z" transform="translate(-351.69 -379.97)"/><path d="M375.88,617.11a29,29,0,0,1,13.82,2.25,21.39,21.39,0,0,1,9.13,7.63,23.91,23.91,0,0,1,1.23,23.23,21.39,21.39,0,0,1-8.28,8.56,32.77,32.77,0,0,1-27.29,1.46,21.28,21.28,0,0,1-9.13-7.64,23.93,23.93,0,0,1-1.24-23.22,21.27,21.27,0,0,1,8.26-8.56A29,29,0,0,1,375.88,617.11Zm.48,9a23,23,0,0,0-9.39,2.26,13.14,13.14,0,0,0-5.6,5.15,13.71,13.71,0,0,0,.76,14.22,13.1,13.1,0,0,0,6.11,4.52,26.57,26.57,0,0,0,19-1,13.14,13.14,0,0,0,5.6-5.15,13.71,13.71,0,0,0-.76-14.22,13.17,13.17,0,0,0-6.12-4.53A23.13,23.13,0,0,0,376.36,626.1Z" transform="translate(-351.69 -379.97)"/><path d="M401.78,609.77l-48.8-8,1.44-8.84,41.4,6.77,3.51-21.49,7.42,1.21Z" transform="translate(-351.69 -379.97)"/><path d="M400.16,525.79a29.08,29.08,0,0,1,11.66,7.75A21.26,21.26,0,0,1,417,544.26a23.84,23.84,0,0,1-8.46,21.66,21.33,21.33,0,0,1-11.06,4.39A32.78,32.78,0,0,1,372,560.38a21.36,21.36,0,0,1-5.17-10.72A23.93,23.93,0,0,1,375.27,528a21.25,21.25,0,0,1,11.06-4.4A29,29,0,0,1,400.16,525.79Zm-3.27,8.39a23.07,23.07,0,0,0-9.49-1.82,13.24,13.24,0,0,0-7.23,2.38A13.73,13.73,0,0,0,375,548a13.17,13.17,0,0,0,3.7,6.65,26.69,26.69,0,0,0,17.71,6.9,13.24,13.24,0,0,0,7.23-2.38,13.73,13.73,0,0,0,5.17-13.27,13.19,13.19,0,0,0-3.71-6.65A23.05,23.05,0,0,0,396.89,534.18Z" transform="translate(-351.69 -379.97)"/><path d="M418.06,483.27a13.14,13.14,0,0,0-3.82-.7,11.36,11.36,0,0,0-3.64.49,10.58,10.58,0,0,0-3.31,1.75,14.16,14.16,0,0,0-2.84,3,12.77,12.77,0,0,0-2.5,6.94,13.32,13.32,0,0,0,1.94,7.39,22.34,22.34,0,0,0,6.64,6.93,22.88,22.88,0,0,0,8.74,4.09,13.36,13.36,0,0,0,7.66-.56,13.21,13.21,0,0,0,5.88-4.76,13.91,13.91,0,0,0,2.62-6.15,10.34,10.34,0,0,0-.87-5.87,12.72,12.72,0,0,0-4.23-4.86l1.43-1.47L424,500.43l-5.7-4.08L429.93,480l4.83,3.45a21.51,21.51,0,0,1,7.37,8.59,18.46,18.46,0,0,1,1.48,10.2,24.87,24.87,0,0,1-13.77,18.26A21,21,0,0,1,418,522a29.52,29.52,0,0,1-12.67-5.51,31.58,31.58,0,0,1-7.72-7.61,23,23,0,0,1-3.73-8.53,20.63,20.63,0,0,1,.09-8.78,23.14,23.14,0,0,1,3.82-8.31,23.61,23.61,0,0,1,5.43-5.53,20.51,20.51,0,0,1,6.43-3.17,18.89,18.89,0,0,1,6.89-.67,18.37,18.37,0,0,1,6.78,2Z" transform="translate(-351.69 -379.97)"/><path d="M420.35,455.68l7.65-6.63,23.47,8.6.37-.32-5.2-24.45,7.64-6.63L461,461.46l12.09,13.93-6.75,5.86-12.09-13.94Z" transform="translate(-351.69 -379.97)"/><path d="M512.2,418.75l3.09,6.5-20.1,9.57-3.09-6.5Z" transform="translate(-351.69 -379.97)"/></svg>